<svg id="Layer_1" data-name="Layer 1" xmlns="http://www.w3.org/2000/svg" xmlns:xlink="http://www.w3.org/1999/xlink" viewBox="0 0 250 250"><defs><style>.cls-1{fill:#e5e5e5;}.cls-2{fill:none;}.cls-3{fill:url(#linear-gradient);}.cls-4{fill:url(#linear-gradient-2);}.cls-5{fill:url(#linear-gradient-3);}.cls-6{fill:url(#linear-gradient-4);}.cls-7{fill:url(#linear-gradient-5);}</style><linearGradient id="linear-gradient" x1="93.01" y1="102.88" x2="93.01" y2="118.48" gradientUnits="userSpaceOnUse"><stop offset="0" stop-color="#f16908"/><stop offset="1" stop-color="#e7281f"/></linearGradient><linearGradient id="linear-gradient-2" x1="108.93" y1="160.17" x2="108.93" y2="175.76" xlink:href="#linear-gradient"/><linearGradient id="linear-gradient-3" x1="996.02" y1="511.05" x2="996.02" y2="536.3" xlink:href="#linear-gradient"/><linearGradient id="linear-gradient-4" x1="125" y1="74.24" x2="125" y2="89.83" xlink:href="#linear-gradient"/><linearGradient id="linear-gradient-5" x1="125" y1="131.52" x2="125" y2="147.12" xlink:href="#linear-gradient"/></defs><title>choose_p</title><rect class="cls-1" width="250" height="250" rx="24.06"/><rect class="cls-2" x="61.19" y="74.24" width="127.63" height="15.6" rx="4.94"/><rect class="cls-2" x="61.19" y="102.88" width="63.65" height="15.6" rx="4.94"/><path class="cls-2" d="M1014.25,520.25,988,535.62a4.94,4.94,0,0,1-6.76-1.77L976,525a4.94,4.94,0,0,1,8.53-5l.21.35a4.92,4.92,0,0,0,6.75,1.77l17.75-10.38a4.94,4.94,0,0,1,5,8.53Z" transform="translate(-835.5 -415.5)"/><rect class="cls-2" x="61.19" y="131.52" width="127.63" height="15.6" rx="4.94"/><rect class="cls-2" x="61.19" y="160.17" width="95.48" height="15.6" rx="4.94"/><rect class="cls-3" x="61.19" y="102.88" width="63.65" height="15.6" rx="4.94"/><rect class="cls-4" x="61.19" y="160.17" width="95.48" height="15.6" rx="4.94"/><path class="cls-5" d="M1014.25,520.25,988,535.62a4.94,4.94,0,0,1-6.76-1.77L976,525a4.94,4.94,0,0,1,8.53-5l.21.35a4.92,4.92,0,0,0,6.75,1.77l17.75-10.38a4.94,4.94,0,0,1,5,8.53Z" transform="translate(-835.5 -415.5)"/><rect class="cls-6" x="61.19" y="74.24" width="127.63" height="15.6" rx="4.94"/><rect class="cls-7" x="61.19" y="131.52" width="127.63" height="15.6" rx="4.94"/></svg>