<svg id="Layer_1" data-name="Layer 1" xmlns="http://www.w3.org/2000/svg" xmlns:xlink="http://www.w3.org/1999/xlink" viewBox="0 0 250 250"><defs><style>.cls-1{fill:#e5e5e5;}.cls-2{fill:none;}.cls-3{fill:url(#linear-gradient);}.cls-4{fill:url(#linear-gradient-2);}.cls-5{fill:url(#linear-gradient-3);}.cls-6{fill:url(#linear-gradient-4);}.cls-7{fill:url(#linear-gradient-5);}</style><linearGradient id="linear-gradient" x1="935.62" y1="584.41" x2="935.62" y2="478.16" gradientUnits="userSpaceOnUse"><stop offset="0" stop-color="#e7281f"/><stop offset="1" stop-color="#f16908"/></linearGradient><linearGradient id="linear-gradient-2" x1="1012.91" y1="478.16" x2="1012.91" y2="493.25" gradientUnits="userSpaceOnUse"><stop offset="0" stop-color="#f16908"/><stop offset="1" stop-color="#e7281f"/></linearGradient><linearGradient id="linear-gradient-3" x1="1012.91" y1="508.49" x2="1012.91" y2="523.58" xlink:href="#linear-gradient-2"/><linearGradient id="linear-gradient-4" x1="1012.91" y1="538.82" x2="1012.91" y2="553.91" xlink:href="#linear-gradient-2"/><linearGradient id="linear-gradient-5" x1="1012.91" y1="569.16" x2="1012.91" y2="584.25" xlink:href="#linear-gradient-2"/></defs><title>sent_request</title><rect class="cls-1" width="250" height="250" rx="24.06"/><path class="cls-2" d="M943.56,602.84h-.62a13.07,13.07,0,0,0,.45-2A14.57,14.57,0,0,1,943.56,602.84Z" transform="translate(-835.5 -415.5)"/><path class="cls-3" d="M975.3,478.16H896a7.06,7.06,0,0,0-7.07,7.07v66.36a7.07,7.07,0,0,0,7.07,7.07h40l29.12,25.75-.84-25.75h11a7.08,7.08,0,0,0,7.08-7.07V485.23A7.07,7.07,0,0,0,975.3,478.16Zm-7.62,63.25h-62.5a2.46,2.46,0,0,1-2.37-3.12c1.83-6.63,8.18-21.7,28.27-24.07H932a13,13,0,1,1,9.48.09l.9,0c17.37,2.66,25,17.07,27.58,23.71A2.46,2.46,0,0,1,967.68,541.41Z" transform="translate(-835.5 -415.5)"/><path class="cls-4" d="M1032.12,482.94v5.53c0,2.64-1.33,4.78-3,4.78H996.69c-1.65,0-3-2.14-3-4.78v-5.53c0-2.64,1.34-4.78,3-4.78h32.45C1030.79,478.16,1032.12,480.3,1032.12,482.94Z" transform="translate(-835.5 -415.5)"/><path class="cls-5" d="M1032.12,513.27v5.53c0,2.64-1.33,4.78-3,4.78H996.69c-1.65,0-3-2.14-3-4.78v-5.53c0-2.64,1.34-4.78,3-4.78h32.45C1030.79,508.49,1032.12,510.63,1032.12,513.27Z" transform="translate(-835.5 -415.5)"/><path class="cls-6" d="M1032.12,543.6v5.53c0,2.64-1.33,4.78-3,4.78H996.69c-1.65,0-3-2.14-3-4.78V543.6c0-2.64,1.34-4.78,3-4.78h32.45C1030.79,538.82,1032.12,541,1032.12,543.6Z" transform="translate(-835.5 -415.5)"/><path class="cls-7" d="M1032.12,573.94v5.53c0,2.64-1.33,4.78-3,4.78H996.69c-1.65,0-3-2.14-3-4.78v-5.53c0-2.64,1.34-4.78,3-4.78h32.45C1030.79,569.16,1032.12,571.3,1032.12,573.94Z" transform="translate(-835.5 -415.5)"/></svg>