<svg id="Layer_1" data-name="Layer 1" xmlns="http://www.w3.org/2000/svg" xmlns:xlink="http://www.w3.org/1999/xlink" viewBox="0 0 250 250"><defs><style>.cls-1{fill:#e5e5e5;}.cls-2{fill:url(#linear-gradient);}.cls-3{fill:none;}.cls-4{fill:#fff;}.cls-5{fill:url(#linear-gradient-2);}.cls-6{fill:url(#linear-gradient-3);}.cls-7{fill:url(#linear-gradient-4);}.cls-8{fill:url(#linear-gradient-5);}</style><linearGradient id="linear-gradient" x1="961.23" y1="503.7" x2="1028.28" y2="503.7" gradientUnits="userSpaceOnUse"><stop offset="0" stop-color="#f16908"/><stop offset="1" stop-color="#e7281f"/></linearGradient><linearGradient id="linear-gradient-2" x1="1132.13" y1="1355.61" x2="1269.69" y2="1355.61" gradientTransform="translate(2352.48 -660.41) rotate(90)" xlink:href="#linear-gradient"/><linearGradient id="linear-gradient-3" x1="2016.62" y1="972.78" x2="2152.17" y2="972.78" gradientTransform="translate(3044.89 1551.07) rotate(180)" xlink:href="#linear-gradient"/><linearGradient id="linear-gradient-4" x1="1340.03" y1="489.41" x2="1477.58" y2="489.41" gradientTransform="translate(434.45 1949.3) rotate(-90)" xlink:href="#linear-gradient"/><linearGradient id="linear-gradient-5" x1="892.72" y1="507.44" x2="961.23" y2="507.44" xlink:href="#linear-gradient"/></defs><title>start_v</title><rect class="cls-1" width="250" height="250" rx="24.06"/><path class="cls-2" d="M961.23,489a4.72,4.72,0,0,1,4.13-4.72l57.68-6.94a4.71,4.71,0,0,1,5.24,4.72V525.4a4.71,4.71,0,0,1-5.08,4.73l-57.69-5a4.72,4.72,0,0,1-4.28-4.74V519" transform="translate(-835.5 -415.5)"/><path class="cls-3" d="M926.07,475.79h-.36a8.63,8.63,0,0,1,.1-1.15A7.37,7.37,0,0,0,926.07,475.79Z" transform="translate(-835.5 -415.5)"/><path class="cls-4" d="M1017.89,609.28H975.13a4.73,4.73,0,0,1-4.67-5.16l4.89-58.53a4.71,4.71,0,0,1,4.67-4.35h1.38v-5.77a14.11,14.11,0,0,1-11.94-10.09s.57-30.56,3.7-30.85,4.26,4,4.54,4.9,0,18.45,0,20.47,2.56,0,2.56,0-2.84-41.23,1.14-42.38,4.83,2.31,4.83,2.31l2.27,28.25V477.52c0-4.32,3.41-6,5.4-5.77s2.84,3.75,2.84,3.75v31.43H999s-3.12-30.85,1.14-31.43,5.4,4.33,5.4,4.33-.57,24.21,0,28.54,2.55,0,2.55,0-1.13-25.08,2.85-25.66,5.11,4,5.11,4,.28,33.44,0,38.92-5.11,9.8-5.11,9.8v5.77h.1a4.71,4.71,0,0,1,4.65,4.19l6.84,58.53A4.73,4.73,0,0,1,1017.89,609.28Z" transform="translate(-835.5 -415.5)"/><path class="cls-5" d="M1018.74,609.28H976a4.72,4.72,0,0,1-4.66-5.16l4.88-58.53a4.72,4.72,0,0,1,4.67-4.35h1.38v-5.77a14.1,14.1,0,0,1-11.93-10.09s.57-30.56,3.69-30.85,4.26,4,4.55,4.9,0,18.45,0,20.47,2.55,0,2.55,0-2.84-41.23,1.14-42.38,4.83,2.31,4.83,2.31l2.27,28.25V477.52c0-4.32,3.41-6,5.4-5.77s2.84,3.75,2.84,3.75v31.43h2.28s-3.13-30.85,1.13-31.43,5.4,4.33,5.4,4.33-.57,24.21,0,28.54,2.56,0,2.56,0-1.14-25.08,2.84-25.66,5.11,4,5.11,4,.29,33.44,0,38.92-5.11,9.8-5.11,9.8v5.77h.1a4.71,4.71,0,0,1,4.65,4.19l6.84,58.53A4.72,4.72,0,0,1,1018.74,609.28Z" transform="translate(-835.5 -415.5)"/><path class="cls-4" d="M892.72,599.62V556.23a4.71,4.71,0,0,1,5.08-4.73l57.69,5a4.71,4.71,0,0,1,4.28,4.73v1.4h5.69c1.42-10.09,9.94-12.11,9.94-12.11s30.12.58,30.4,3.75-4,4.33-4.83,4.61-18.18,0-20.17,0,0,2.6,0,2.6,40.63-2.88,41.76,1.15-2.27,4.9-2.27,4.9l-27.84,2.31h30.11c4.27,0,6,3.46,5.69,5.48s-3.7,2.88-3.7,2.88h-31v2.31s30.4-3.17,31,1.15-4.26,5.48-4.26,5.48-23.86-.58-28.13,0,0,2.59,0,2.59,24.72-1.15,25.29,2.89-4,5.18-4,5.18-33,.29-38.35,0-9.66-5.18-9.66-5.18h-5.69v.1a4.73,4.73,0,0,1-4.13,4.72L898,604.34A4.71,4.71,0,0,1,892.72,599.62Z" transform="translate(-835.5 -415.5)"/><path class="cls-6" d="M892.72,600.49V557.1a4.72,4.72,0,0,1,5.08-4.74l57.69,5a4.73,4.73,0,0,1,4.28,4.74v1.4h5.69c1.42-10.09,9.94-12.11,9.94-12.11s30.12.57,30.4,3.75-4,4.32-4.83,4.61-18.18,0-20.17,0,0,2.59,0,2.59,40.63-2.88,41.76,1.16-2.27,4.9-2.27,4.9l-27.84,2.3h30.11c4.27,0,6,3.46,5.69,5.48s-3.7,2.89-3.7,2.89h-31v2.3s30.4-3.17,31,1.15-4.26,5.48-4.26,5.48-23.86-.57-28.13,0,0,2.6,0,2.6,24.72-1.16,25.29,2.88-4,5.19-4,5.19-33,.29-38.35,0-9.66-5.19-9.66-5.19h-5.69v.1a4.72,4.72,0,0,1-4.13,4.72l-57.68,7A4.71,4.71,0,0,1,892.72,600.49Z" transform="translate(-835.5 -415.5)"/><path class="cls-4" d="M903.12,471.72h42.76a4.73,4.73,0,0,1,4.67,5.16l-4.89,58.53a4.71,4.71,0,0,1-4.67,4.35h-1.38v5.77a14.11,14.11,0,0,1,11.94,10.09s-.57,30.56-3.7,30.85-4.26-4-4.54-4.9,0-18.45,0-20.47-2.56,0-2.56,0,2.84,41.23-1.14,42.38-4.83-2.31-4.83-2.31l-2.27-28.25v30.56c0,4.32-3.41,6-5.4,5.77s-2.84-3.75-2.84-3.75V574.07H922s3.12,30.85-1.14,31.43-5.4-4.33-5.4-4.33.57-24.21,0-28.54-2.55,0-2.55,0,1.13,25.08-2.85,25.66-5.11-4-5.11-4-.28-33.44,0-38.92,5.11-9.8,5.11-9.8v-5.77H910a4.71,4.71,0,0,1-4.65-4.19L898.47,477A4.73,4.73,0,0,1,903.12,471.72Z" transform="translate(-835.5 -415.5)"/><path class="cls-7" d="M902,471.72h42.76a4.73,4.73,0,0,1,4.67,5.16l-4.89,58.53a4.7,4.7,0,0,1-4.67,4.35h-1.37v5.77a14.1,14.1,0,0,1,11.93,10.09s-.57,30.56-3.69,30.85-4.27-4-4.55-4.9,0-18.45,0-20.47-2.56,0-2.56,0,2.84,41.23-1.13,42.38-4.83-2.31-4.83-2.31l-2.28-28.25v30.56c0,4.32-3.41,6-5.4,5.77s-2.84-3.75-2.84-3.75V574.07h-2.27s3.13,30.85-1.14,31.43-5.39-4.33-5.39-4.33.56-24.21,0-28.54-2.56,0-2.56,0,1.14,25.08-2.84,25.66-5.12-4-5.12-4-.28-33.44,0-38.92,5.12-9.8,5.12-9.8v-5.77h-.1a4.72,4.72,0,0,1-4.66-4.19L897.33,477A4.74,4.74,0,0,1,902,471.72Z" transform="translate(-835.5 -415.5)"/><path class="cls-4" d="M961.23,520.19h-5.69c-1.42,10.09-9.94,12.11-9.94,12.11s-30.12-.58-30.4-3.75,4-4.32,4.83-4.61,18.18,0,20.17,0,0-2.6,0-2.6-40.63,2.89-41.76-1.15,2.27-4.9,2.27-4.9L928.55,513H898.44c-4.27,0-6-3.46-5.69-5.48s3.7-2.88,3.7-2.88h31v-2.31s-30.4,3.18-31-1.15,4.26-5.48,4.26-5.48,23.86.58,28.13,0,0-2.59,0-2.59-24.72,1.15-25.29-2.88,4-5.19,4-5.19,33-.29,38.35,0,9.66,5.19,9.66,5.19h5.69v-.11" transform="translate(-835.5 -415.5)"/><path class="cls-8" d="M961.23,519h-5.69c-1.42,10.09-9.94,12.11-9.94,12.11s-30.12-.58-30.4-3.75,4-4.33,4.83-4.62,18.18,0,20.17,0,0-2.59,0-2.59-40.63,2.88-41.76-1.15,2.27-4.9,2.27-4.9l27.84-2.31H898.44c-4.27,0-6-3.46-5.69-5.48s3.7-2.88,3.7-2.88h31v-2.31s-30.4,3.17-31-1.15,4.26-5.48,4.26-5.48,23.86.58,28.13,0,0-2.59,0-2.59-24.72,1.15-25.29-2.89,4-5.19,4-5.19,33-.29,38.35,0,9.66,5.19,9.66,5.19h5.69V489" transform="translate(-835.5 -415.5)"/></svg>