<svg id="Layer_1" data-name="Layer 1" xmlns="http://www.w3.org/2000/svg" viewBox="0 0 1365.07 924.53"><defs><style>.cls-1{fill:#999;}</style></defs><title>line-1</title><path class="cls-1" d="M253,129l2.48,5.46a0,0,0,0,1-.08,0h0Z" transform="translate(-253 -129)"/><path class="cls-1" d="M260.65,145.22,266,155.89a.24.24,0,0,1-.1.32.23.23,0,0,1-.32-.1h0l-5.2-10.75a.14.14,0,0,1,.06-.19A.15.15,0,0,1,260.65,145.22Z" transform="translate(-253 -129)"/><path class="cls-1" d="M271.54,166.48,277.21,177h0a.41.41,0,0,1-.17.57.41.41,0,0,1-.56-.17h0L271,166.78a.33.33,0,1,1,.58-.3Z" transform="translate(-253 -129)"/><path class="cls-1" d="M283,187.43l5.92,10.36h0a.58.58,0,0,1-.22.79.57.57,0,0,1-.78-.22h0l-5.79-10.46a.5.5,0,0,1,.2-.68.49.49,0,0,1,.67.19Z" transform="translate(-253 -129)"/><path class="cls-1" d="M295,208.09l6.17,10.22h0a.73.73,0,0,1-1.25.76h0l-6-10.32a.65.65,0,0,1,.23-.89.67.67,0,0,1,.9.22Z" transform="translate(-253 -129)"/><path class="cls-1" d="M307.42,228.46l6.4,10.08h0a.88.88,0,1,1-1.49.95h0L306,229.31a.81.81,0,0,1,.27-1.11.8.8,0,0,1,1.1.25Z" transform="translate(-253 -129)"/><path class="cls-1" d="M320.33,248.54l6.63,9.92h0a1,1,0,0,1-1.73,1.16h0l-6.51-10a1,1,0,0,1,1.61-1.06Z" transform="translate(-253 -129)"/><path class="cls-1" d="M333.7,268.31l6.86,9.76h0a1.2,1.2,0,1,1-2,1.38v0l-6.75-9.87a1.12,1.12,0,0,1,1.84-1.27Z" transform="translate(-253 -129)"/><path class="cls-1" d="M347.53,287.76l7.09,9.6h0a1.35,1.35,0,1,1-2.17,1.6h0l-7-9.72a1.27,1.27,0,0,1,2-1.49Z" transform="translate(-253 -129)"/><path class="cls-1" d="M361.81,306.87l7.31,9.43h0a1.5,1.5,0,1,1-2.37,1.84h0l-7.21-9.55a1.42,1.42,0,0,1,2.26-1.73Z" transform="translate(-253 -129)"/><path class="cls-1" d="M376.5,325.67,384,335v0a1.53,1.53,0,1,1-2.38,1.92h0l-7.5-9.33a1.52,1.52,0,0,1,2.37-1.91Z" transform="translate(-253 -129)"/><path class="cls-1" d="M391.57,344.16l7.71,9.1v0a1.5,1.5,0,0,1-2.29,1.94l-7.74-9.12a1.51,1.51,0,0,1,2.3-2h0Z" transform="translate(-253 -129)"/><path class="cls-1" d="M407.11,362.26l7.95,8.89v0a1.5,1.5,0,0,1-2.23,2l-8-8.93a1.5,1.5,0,0,1,2.24-2Z" transform="translate(-253 -129)"/><path class="cls-1" d="M423.13,379.93l8.18,8.67,0,0a1.5,1.5,0,1,1-2.18,2.06l-8.22-8.7a1.5,1.5,0,0,1,2.18-2.06Z" transform="translate(-253 -129)"/><path class="cls-1" d="M439.62,397.15l8.43,8.44h0a1.5,1.5,0,1,1-2.12,2.13l-8.46-8.47a1.5,1.5,0,0,1,2.13-2.12Z" transform="translate(-253 -129)"/><path class="cls-1" d="M456.6,413.9l8.67,8.19h0a1.5,1.5,0,1,1-2.06,2.18l-8.71-8.21a1.5,1.5,0,1,1,2.06-2.18Z" transform="translate(-253 -129)"/><path class="cls-1" d="M474.06,430.14l8.92,7.91,0,0a1.5,1.5,0,0,1-2,2.24l-8.95-7.94a1.51,1.51,0,0,1,2-2.25Z" transform="translate(-253 -129)"/><path class="cls-1" d="M492,445.83l9.16,7.63,0,0a1.5,1.5,0,0,1-1.92,2.3l-9.2-7.66a1.5,1.5,0,0,1,1.92-2.31Z" transform="translate(-253 -129)"/><path class="cls-1" d="M510.47,460.94l9.4,7.32,0,0a1.5,1.5,0,1,1-1.84,2.36l-9.45-7.35a1.5,1.5,0,0,1,1.85-2.37Z" transform="translate(-253 -129)"/><path class="cls-1" d="M529.4,475.42l9.66,7h0a1.5,1.5,0,0,1-1.76,2.43l-9.7-7a1.5,1.5,0,0,1,1.76-2.43Z" transform="translate(-253 -129)"/><path class="cls-1" d="M548.83,489.24l9.9,6.65,0,0a1.5,1.5,0,1,1-1.68,2.49l-9.94-6.68a1.5,1.5,0,0,1,1.68-2.49Z" transform="translate(-253 -129)"/><path class="cls-1" d="M568.74,502.36l10.13,6.27,0,0a1.5,1.5,0,0,1-1.58,2.55l-10.18-6.31a1.49,1.49,0,0,1-.49-2.06,1.51,1.51,0,0,1,2.07-.49Z" transform="translate(-253 -129)"/><path class="cls-1" d="M589.12,514.72l10.37,5.88,0,0a1.5,1.5,0,0,1-1.48,2.61l-10.42-5.92a1.5,1.5,0,0,1,1.49-2.61Z" transform="translate(-253 -129)"/><path class="cls-1" d="M610,526.28l10.59,5.48h0a1.5,1.5,0,1,1-1.38,2.66l-10.64-5.49a1.5,1.5,0,1,1,1.38-2.67Z" transform="translate(-253 -129)"/><path class="cls-1" d="M631.25,537l10.8,5h0a1.5,1.5,0,1,1-1.26,2.72L630,539.72a1.5,1.5,0,1,1,1.27-2.72Z" transform="translate(-253 -129)"/><path class="cls-1" d="M653,546.86l11,4.58h0a1.51,1.51,0,0,1,.81,2,1.5,1.5,0,0,1-2,.81l-11.06-4.6a1.5,1.5,0,1,1,1.15-2.77Z" transform="translate(-253 -129)"/><path class="cls-1" d="M675,555.79l11.19,4.1,0,0a1.5,1.5,0,1,1-1,2.81L674,558.59a1.5,1.5,0,0,1,1-2.81Z" transform="translate(-253 -129)"/><path class="cls-1" d="M697.5,563.76l11.35,3.62h0a1.5,1.5,0,0,1-.91,2.85l-11.41-3.63a1.5,1.5,0,0,1,.91-2.86Z" transform="translate(-253 -129)"/><path class="cls-1" d="M720.27,570.74l11.5,3.12h0a1.5,1.5,0,1,1-.78,2.9l-11.56-3.13a1.5,1.5,0,0,1,.78-2.9Z" transform="translate(-253 -129)"/><path class="cls-1" d="M743.33,576.71,755,579.32h0a1.5,1.5,0,0,1-.65,2.93l-11.69-2.62a1.5,1.5,0,1,1,.65-2.92Z" transform="translate(-253 -129)"/><path class="cls-1" d="M766.64,581.66l11.73,2.08h0a1.5,1.5,0,0,1-.52,3l-11.8-2.09a1.5,1.5,0,0,1,.53-3Z" transform="translate(-253 -129)"/><path class="cls-1" d="M790.14,585.56,802,587.12h0a1.5,1.5,0,1,1-.4,3l-11.87-1.56a1.5,1.5,0,0,1,.39-3Z" transform="translate(-253 -129)"/><path class="cls-1" d="M813.8,588.41l11.87,1h0a1.5,1.5,0,0,1-.26,3l-11.94-1a1.5,1.5,0,0,1,.26-3Z" transform="translate(-253 -129)"/><path class="cls-1" d="M837.55,590.22l11.91.52h0a1.5,1.5,0,0,1-.13,3l-12-.52a1.5,1.5,0,0,1,.13-3Z" transform="translate(-253 -129)"/><path class="cls-1" d="M861.37,591h12a1.5,1.5,0,0,1,0,3h-12a1.5,1.5,0,0,1,0-3Z" transform="translate(-253 -129)"/><path class="cls-1" d="M885.2,590.77l11.91-.49h0a1.5,1.5,0,1,1,.12,3l-12,.5a1.51,1.51,0,0,1-1.57-1.44,1.5,1.5,0,0,1,1.44-1.56Z" transform="translate(-253 -129)"/><path class="cls-1" d="M909,589.54l11.88-1h0a1.5,1.5,0,0,1,.24,3l-11.94,1a1.5,1.5,0,0,1-.24-3Z" transform="translate(-253 -129)"/><path class="cls-1" d="M932.73,587.35l11.86-1.41a1.5,1.5,0,1,1,.36,3h0l-11.87,1.41a1.5,1.5,0,0,1-.36-3Z" transform="translate(-253 -129)"/><path class="cls-1" d="M956.5,584.65l11.93-1.06a1.5,1.5,0,1,1,.26,3h0l-11.88,1.06h0a1.49,1.49,0,0,1-1.63-1.36A1.51,1.51,0,0,1,956.5,584.65Z" transform="translate(-253 -129)"/><path class="cls-1" d="M980.37,582.74l12-.63a1.5,1.5,0,1,1,.16,3h0l-11.9.63h0a1.5,1.5,0,0,1-.16-3Z" transform="translate(-253 -129)"/><path class="cls-1" d="M1004.3,581.71l12-.18a1.5,1.5,0,1,1,0,3h0l-11.92.18h0a1.5,1.5,0,0,1-.05-3Z" transform="translate(-253 -129)"/><path class="cls-1" d="M1028.25,581.57l12,.26a1.5,1.5,0,0,1-.07,3h0l-11.91-.26h0a1.5,1.5,0,1,1,.06-3Z" transform="translate(-253 -129)"/><path class="cls-1" d="M1052.2,582.32l12,.71a1.5,1.5,0,0,1-.18,3h0l-11.9-.71h0a1.5,1.5,0,1,1,.18-3Z" transform="translate(-253 -129)"/><path class="cls-1" d="M1076.09,584l11.92,1.16a1.5,1.5,0,1,1-.29,3h0L1075.83,587h0a1.5,1.5,0,1,1,.29-3Z" transform="translate(-253 -129)"/><path class="cls-1" d="M1099.91,586.53l11.86,1.62a1.5,1.5,0,1,1-.4,3h0l-11.81-1.61h0a1.5,1.5,0,0,1,.41-3Z" transform="translate(-253 -129)"/><path class="cls-1" d="M1123.61,590l11.8,2.07a1.5,1.5,0,1,1-.52,3h0L1123.12,593h0a1.5,1.5,0,1,1,.52-3Z" transform="translate(-253 -129)"/><path class="cls-1" d="M1147.17,594.35l11.72,2.51a1.5,1.5,0,1,1-.63,2.93h0l-11.66-2.5h0a1.5,1.5,0,0,1,.63-2.93Z" transform="translate(-253 -129)"/><path class="cls-1" d="M1170.55,599.59l11.61,2.95a1.5,1.5,0,1,1-.74,2.91h0l-11.56-2.93h0a1.5,1.5,0,0,1,.74-2.91Z" transform="translate(-253 -129)"/><path class="cls-1" d="M1193.72,605.71l11.49,3.39a1.5,1.5,0,0,1-.85,2.88h0l-11.43-3.37h0a1.5,1.5,0,1,1,.85-2.88Z" transform="translate(-253 -129)"/><path class="cls-1" d="M1216.63,612.71l11.36,3.81a1.5,1.5,0,0,1-1,2.85h0l-11.3-3.8h0a1.5,1.5,0,1,1,1-2.84Z" transform="translate(-253 -129)"/><path class="cls-1" d="M1239.27,620.55l11.21,4.24a1.5,1.5,0,0,1-1.06,2.81h0l-11.15-4.22h0a1.5,1.5,0,0,1,1.06-2.81Z" transform="translate(-253 -129)"/><path class="cls-1" d="M1261.6,629.24l11,4.65a1.5,1.5,0,1,1-1.16,2.76h0l-11-4.63h0a1.5,1.5,0,0,1,1.16-2.76Z" transform="translate(-253 -129)"/><path class="cls-1" d="M1283.59,638.75l10.86,5a1.51,1.51,0,0,1,.73,2,1.49,1.49,0,0,1-2,.72h0l-10.81-5h0a1.51,1.51,0,0,1-.73-2A1.49,1.49,0,0,1,1283.59,638.75Z" transform="translate(-253 -129)"/><path class="cls-1" d="M1305.22,649.06l10.66,5.46a1.5,1.5,0,0,1-1.36,2.67h0l-10.61-5.43,0,0a1.5,1.5,0,0,1,1.37-2.67Z" transform="translate(-253 -129)"/><path class="cls-1" d="M1326.45,660.17,1336.9,666a1.5,1.5,0,0,1-1.46,2.62h0L1325,662.8h0a1.5,1.5,0,1,1,1.47-2.62Z" transform="translate(-253 -129)"/><path class="cls-1" d="M1347.25,672.05l10.24,6.22a1.5,1.5,0,1,1-1.56,2.56h0l-10.19-6.2h0a1.5,1.5,0,0,1,1.56-2.56Z" transform="translate(-253 -129)"/><path class="cls-1" d="M1367.61,684.68l10,6.59a1.5,1.5,0,0,1-1.65,2.51l0,0-10-6.56,0,0a1.5,1.5,0,1,1,1.65-2.5Z" transform="translate(-253 -129)"/><path class="cls-1" d="M1387.49,698.05l9.75,7a1.5,1.5,0,1,1-1.74,2.44l0,0-9.71-6.92,0,0a1.5,1.5,0,0,1,1.74-2.44Z" transform="translate(-253 -129)"/><path class="cls-1" d="M1406.86,712.14l9.49,7.31a1.5,1.5,0,1,1-1.83,2.38l0,0-9.44-7.28h0a1.5,1.5,0,0,1,1.83-2.38Z" transform="translate(-253 -129)"/><path class="cls-1" d="M1425.71,726.94l9.21,7.66a1.5,1.5,0,1,1-1.92,2.3h0l-9.17-7.63h0a1.5,1.5,0,0,1,1.92-2.31Z" transform="translate(-253 -129)"/><path class="cls-1" d="M1444,742.42l8.92,8a1.5,1.5,0,1,1-2,2.24l0,0-8.88-8,0,0a1.5,1.5,0,1,1,2-2.24Z" transform="translate(-253 -129)"/><path class="cls-1" d="M1461.68,758.59l8.61,8.33a1.5,1.5,0,1,1-2.08,2.15l0,0-8.57-8.29,0,0a1.5,1.5,0,0,1,2.09-2.15Z" transform="translate(-253 -129)"/><path class="cls-1" d="M1478.74,775.41l8.29,8.65a1.5,1.5,0,0,1-2.17,2.08l0,0-8.24-8.62,0,0a1.5,1.5,0,1,1,2.16-2.07Z" transform="translate(-253 -129)"/><path class="cls-1" d="M1495.15,792.88l7.94,9a1.5,1.5,0,0,1-2.25,2l0,0-7.9-8.93,0,0a1.5,1.5,0,1,1,2.25-2Z" transform="translate(-253 -129)"/><path class="cls-1" d="M1510.85,811l7.58,9.28a1.51,1.51,0,0,1-2.33,1.91h0l0,0-7.54-9.24,0,0a1.5,1.5,0,0,1,2.33-1.9Z" transform="translate(-253 -129)"/><path class="cls-1" d="M1525.83,829.69l7.17,9.6a1.52,1.52,0,0,1-2.43,1.82v0l-7.16-9.53,0,0a1.53,1.53,0,0,1,2.44-1.83Z" transform="translate(-253 -129)"/><path class="cls-1" d="M1540,849.06l6.71,9.93a1.41,1.41,0,0,1-2.32,1.59l0,0-6.79-9.8,0,0a1.48,1.48,0,0,1,2.43-1.69Z" transform="translate(-253 -129)"/><path class="cls-1" d="M1553.14,869.07l6.25,10.22a1.25,1.25,0,0,1-2.13,1.32l0,0-6.34-10.09,0,0a1.33,1.33,0,1,1,2.25-1.41Z" transform="translate(-253 -129)"/><path class="cls-1" d="M1565.4,889.66l5.76,10.5a1.1,1.1,0,0,1-1.92,1.07v0l-5.87-10.38v0a1.17,1.17,0,1,1,2-1.15Z" transform="translate(-253 -129)"/><path class="cls-1" d="M1576.67,910.8l5.23,10.77a.94.94,0,0,1-1.69.84v0l-5.36-10.66v0a1,1,0,0,1,.46-1.38,1,1,0,0,1,1.37.46Z" transform="translate(-253 -129)"/><path class="cls-1" d="M1586.86,932.48l4.66,11a.8.8,0,0,1-1.46.63v0l-4.78-10.92v0a.87.87,0,1,1,1.59-.69Z" transform="translate(-253 -129)"/><path class="cls-1" d="M1595.87,954.66l4,11.27a.64.64,0,1,1-1.2.44v0l-4.16-11.18v0a.73.73,0,0,1,.43-.92.71.71,0,0,1,.92.42Z" transform="translate(-253 -129)"/><path class="cls-1" d="M1603.6,977.32l3.34,11.49a.48.48,0,0,1-.33.6.49.49,0,0,1-.61-.32v0l-3.48-11.41v0a.55.55,0,0,1,.37-.7.57.57,0,0,1,.71.37Z" transform="translate(-253 -129)"/><path class="cls-1" d="M1609.9,1000.4l2.57,11.69a.3.3,0,0,1-.24.37.31.31,0,0,1-.38-.23h0l-2.74-11.62v0a.4.4,0,0,1,.3-.49.41.41,0,0,1,.49.31Z" transform="translate(-253 -129)"/><path class="cls-1" d="M1614.62,1023.85l1.72,11.83a.14.14,0,0,1-.11.16.14.14,0,0,1-.16-.12h0l-1.89-11.79h0a.23.23,0,0,1,.19-.26.23.23,0,0,1,.26.19Z" transform="translate(-253 -129)"/><path class="cls-1" d="M1617.61,1047.55l.46,6-.55-6s0,0,0,0a.05.05,0,0,1,0,0Z" transform="translate(-253 -129)"/></svg>