<svg id="Layer_1" data-name="Layer 1" xmlns="http://www.w3.org/2000/svg" viewBox="0 0 1365.07 924.55"><defs><style>.cls-1{fill:#999;}</style></defs><title>line-2</title><path class="cls-1" d="M2.48,919.09,0,924.55m2.4-5.46Z"/><path class="cls-1" d="M7.65,908.33a.16.16,0,0,1-.21,0h0a.14.14,0,0,1-.06-.19l5.2-10.75h0a.23.23,0,0,1,.31-.09.24.24,0,0,1,.1.32L7.65,908.33Z"/><path class="cls-1" d="M18.58,887.07l0,.09a.33.33,0,0,1-.46.07.33.33,0,0,1-.08-.46l5.48-10.62h0A.41.41,0,0,1,24,876h0a.41.41,0,0,1,.15.56h0l-5.67,10.52Z"/><path class="cls-1" d="M30,866.14h0a.49.49,0,0,1-.67.19h0a.51.51,0,0,1-.2-.68l5.79-10.46h0a.58.58,0,0,1,1,.58h0L30,866.12Z"/><path class="cls-1" d="M42.05,845.47a.67.67,0,0,1-.9.22h0a.65.65,0,0,1-.23-.89l6-10.32h0a.73.73,0,0,1,1.25.76h0L42,845.46Z"/><path class="cls-1" d="M54.37,825.1a.81.81,0,0,1-1.37-.86l6.33-10.18h0a.88.88,0,0,1,1.49,1h0l-6.4,10.08Z"/><path class="cls-1" d="M67.33,805a1,1,0,0,1-1.61-1.06l6.51-10h0A1,1,0,0,1,74,795.09h0L67.33,805Z"/><path class="cls-1" d="M80.65,785.24A1.12,1.12,0,0,1,78.81,784l6.75-9.87h0a1.21,1.21,0,1,1,2,1.38h0l-6.86,9.76Z"/><path class="cls-1" d="M94.45,765.8a1.27,1.27,0,0,1-2-1.49l7-9.72h0l.09-.12a1.35,1.35,0,0,1,2.08,1.72h0l-7.09,9.6Z"/><path class="cls-1" d="M108.8,746.69a1.42,1.42,0,1,1-2.26-1.73l7.21-9.55h0a1.5,1.5,0,0,1,2.37,1.84h0l-7.31,9.43Z"/><path class="cls-1" d="M123.49,727.87h0a1.52,1.52,0,1,1-2.37-1.91l7.5-9.33h0l.07-.09a1.53,1.53,0,1,1,2.31,2h0l-7.5,9.33Z"/><path class="cls-1" d="M138.55,709.47h0a1.52,1.52,0,1,1-2.3-2l7.74-9.12a1.5,1.5,0,0,1,2.29,1.94h0l-7.71,9.1Z"/><path class="cls-1" d="M154.07,691.33a1.5,1.5,0,0,1-2.24-2l8-8.93a1.5,1.5,0,0,1,2.23,2h0l-7.95,8.89Z"/><path class="cls-1" d="M170.09,673.65a1.5,1.5,0,0,1-2.18-2.06l8.22-8.7,0,0a1.5,1.5,0,0,1,2.14,2.11h0l-8.18,8.67Z"/><path class="cls-1" d="M186.6,656.42a1.5,1.5,0,1,1-2.13-2.12l8.46-8.47a1.5,1.5,0,0,1,2.12,2.13h0l-8.43,8.44Z"/><path class="cls-1" d="M203.56,639.67l-.05,0a1.5,1.5,0,0,1-2-2.22l8.71-8.21,0,0a1.5,1.5,0,0,1,2,2.22h0l-8.67,8.19Z"/><path class="cls-1" d="M221,623.45a1.51,1.51,0,0,1-2-2.25l8.95-7.94h0a1.5,1.5,0,0,1,2,2.24h0l-8.92,7.91Z"/><path class="cls-1" d="M239,607.76a1.5,1.5,0,1,1-1.92-2.31l9.2-7.66a1.5,1.5,0,0,1,1.92,2.3h0L239,607.72Z"/><path class="cls-1" d="M257.43,592.65a1.5,1.5,0,0,1-1.85-2.37l9.45-7.35a1.09,1.09,0,0,1,.17-.13,1.5,1.5,0,1,1,1.67,2.49h0l-9.4,7.32Z"/><path class="cls-1" d="M276.36,578.13a1.5,1.5,0,1,1-1.76-2.43l9.7-7h0a1.5,1.5,0,1,1,1.76,2.43h0l-9.66,7Z"/><path class="cls-1" d="M295.79,564.34h0a1.5,1.5,0,0,1-1.68-2.49l9.94-6.68a1.5,1.5,0,1,1,1.68,2.49h0l-9.9,6.65Z"/><path class="cls-1" d="M315.69,551.23a1.52,1.52,0,0,1-2.07-.49h0a1.49,1.49,0,0,1,.5-2.05l10.18-6.31a1.5,1.5,0,0,1,1.58,2.55h0l-10.13,6.27Z"/><path class="cls-1" d="M336.08,538.87a1.5,1.5,0,0,1-1.49-2.61L345,530.34a1.5,1.5,0,0,1,1.48,2.61h0l-10.37,5.88Z"/><path class="cls-1" d="M357,527.29a1.5,1.5,0,1,1-1.38-2.67l10.64-5.49.13-.07a1.5,1.5,0,1,1,1.25,2.73h0L357,527.27Z"/><path class="cls-1" d="M378.27,516.55a1.5,1.5,0,0,1-1.27-2.72l10.79-5,.11-.05a1.5,1.5,0,0,1,1.15,2.77h0l-10.8,5Z"/><path class="cls-1" d="M399.9,506.67l-.06,0a1.5,1.5,0,0,1-1.09-2.8l11.06-4.6.05,0a1.5,1.5,0,0,1,1.95.83v0a1.51,1.51,0,0,1-.82,2h0l-11,4.58Z"/><path class="cls-1" d="M422,497.77a1.5,1.5,0,0,1-1-2.81l11.19-4.11a1.82,1.82,0,0,1,.3-.11,1.5,1.5,0,1,1,.7,2.92h0L422,497.76Z"/><path class="cls-1" d="M444.44,489.81a1.5,1.5,0,1,1-.91-2.86l11.41-3.63a1.5,1.5,0,0,1,.91,2.85h0l-11.35,3.62Z"/><path class="cls-1" d="M467.21,482.82a1.5,1.5,0,0,1-.78-2.9L478,476.79a1.5,1.5,0,1,1,.78,2.9h0l-11.5,3.12Z"/><path class="cls-1" d="M490.31,476.84l-.22.05a1.5,1.5,0,0,1-.43-3l11.69-2.62a1.5,1.5,0,1,1,.65,2.93h0l-11.67,2.61Z"/><path class="cls-1" d="M513.58,471.9a1.52,1.52,0,0,1-.53-3l11.8-2.09a1.52,1.52,0,0,1,.52,3h0l-11.73,2.08Z"/><path class="cls-1" d="M537.12,468h0a1.51,1.51,0,1,1-.39-3l11.87-1.56a1.51,1.51,0,1,1,.4,3h0L537.14,468Z"/><path class="cls-1" d="M560.73,465.14h0a1.51,1.51,0,0,1-.26-3l11.94-1a1.51,1.51,0,1,1,.26,3h0l-11.87,1Z"/><path class="cls-1" d="M584.46,463.33a1.5,1.5,0,1,1-.13-3l12-.52a1.5,1.5,0,0,1,.13,3h0l-11.91.52Z"/><path class="cls-1" d="M606.87,461.05a1.5,1.5,0,0,1,1.5-1.5h12a1.5,1.5,0,0,1,0,3h-12A1.5,1.5,0,0,1,606.87,461.05Z"/><path class="cls-1" d="M632.1,462.77h0a1.5,1.5,0,0,1-1.44-1.56,1.51,1.51,0,0,1,1.57-1.44l12,.5a1.5,1.5,0,0,1-.12,3h0l-11.91-.49Z"/><path class="cls-1" d="M655.94,464a1.5,1.5,0,1,1,.24-3l11.94,1a1.5,1.5,0,1,1-.24,3h0L656,464Z"/><path class="cls-1" d="M679.72,466.2a1.51,1.51,0,1,1,.36-3L692,464.61h0a1.51,1.51,0,1,1-.36,3l-11.86-1.41Z"/><path class="cls-1" d="M702.18,467.26v0a1.49,1.49,0,0,1,1.63-1.34h0L715.69,467h0a1.51,1.51,0,0,1-.26,3L703.5,468.9A1.51,1.51,0,0,1,702.18,467.26Z"/><path class="cls-1" d="M727.47,470.81a1.5,1.5,0,0,1,.16-3h0l11.9.63h0a1.5,1.5,0,1,1-.16,3l-12-.63Z"/><path class="cls-1" d="M751.33,471.84a1.5,1.5,0,0,1,0-3h0l11.92.18h0a1.5,1.5,0,0,1,0,3l-12-.18Z"/><path class="cls-1" d="M775.33,472a1.5,1.5,0,0,1-.06-3h0l11.91-.26h0a1.5,1.5,0,1,1,.07,3l-12,.26Z"/><path class="cls-1" d="M799.3,471.23a1.5,1.5,0,0,1-.18-3h0l11.9-.71h0a1.5,1.5,0,1,1,.18,3l-12,.71Z"/><path class="cls-1" d="M823.12,469.55a1.51,1.51,0,1,1-.29-3h0l11.89-1.16h0a1.51,1.51,0,0,1,.29,3l-11.92,1.16Z"/><path class="cls-1" d="M847,467a1.51,1.51,0,0,1-.41-3h0l11.81-1.61h0a1.51,1.51,0,0,1,.4,3L846.91,467Z"/><path class="cls-1" d="M870.64,463.55a1.52,1.52,0,1,1-.52-3h0l11.77-2.07h0a1.52,1.52,0,0,1,.52,3l-11.8,2.07Z"/><path class="cls-1" d="M894.23,459.19a1.5,1.5,0,0,1-.63-2.93h0l11.66-2.5h0l.13,0a1.5,1.5,0,0,1,.5,3l-11.72,2.51Z"/><path class="cls-1" d="M917.6,453.94a1.5,1.5,0,0,1-.74-2.91h0l11.56-2.93h0a1.5,1.5,0,0,1,.74,2.91L917.55,454Z"/><path class="cls-1" d="M940.78,447.82a1.5,1.5,0,1,1-.85-2.88h0l11.43-3.37h0a1.5,1.5,0,0,1,.85,2.88l-11.49,3.39Z"/><path class="cls-1" d="M963.69,440.82a1.51,1.51,0,0,1-1-2.84h0l11.3-3.8h0a1.51,1.51,0,1,1,1,2.85l-11.36,3.81Z"/><path class="cls-1" d="M986.33,433h0a1.5,1.5,0,1,1-1.06-2.81h0L996.42,426h0a1.5,1.5,0,0,1,1.06,2.81L986.27,433Z"/><path class="cls-1" d="M1008.6,424.29a1.5,1.5,0,0,1-1.16-2.76h0l11-4.63h0l.18-.07a1.5,1.5,0,1,1,1,2.83l-11,4.65Z"/><path class="cls-1" d="M1028.64,414.08a1.51,1.51,0,0,1,.73-2h0l10.81-5h0a1.49,1.49,0,0,1,2,.73,1.51,1.51,0,0,1-.73,2l-10.86,5A1.49,1.49,0,0,1,1028.64,414.08Z"/><path class="cls-1" d="M1052.28,404.46a1.5,1.5,0,1,1-1.37-2.67h0l10.61-5.43h0a1.5,1.5,0,0,1,1.36,2.67l-10.66,5.46Z"/><path class="cls-1" d="M1073.47,393.37a1.5,1.5,0,1,1-1.47-2.62h0l10.44-5.82h0a1.5,1.5,0,0,1,2,.57,1.51,1.51,0,0,1-.54,2.05l-10.45,5.83Z"/><path class="cls-1" d="M1094.3,381.48a1.5,1.5,0,0,1-1.56-2.56h0l10.19-6.2h0l.1-.06a1.5,1.5,0,0,1,1.46,2.62l-10.24,6.22Z"/><path class="cls-1" d="M1114.61,368.83l-.14.09a1.5,1.5,0,0,1-1.51-2.59h0l10-6.56h0a1.5,1.5,0,0,1,1.65,2.51l-10,6.59Z"/><path class="cls-1" d="M1134.53,355.42a1.5,1.5,0,0,1-1.74-2.44h0l9.71-6.92h0l.11-.08a1.5,1.5,0,1,1,1.63,2.52l-9.75,7Z"/><path class="cls-1" d="M1153.91,341.38h0a1.5,1.5,0,0,1-1.83-2.38h0l9.44-7.28h0a1.5,1.5,0,0,1,1.83,2.38l-9.49,7.31Z"/><path class="cls-1" d="M1172.75,326.59h0a1.5,1.5,0,1,1-1.92-2.31h0l9.17-7.63h0l.12-.1a1.5,1.5,0,1,1,1.8,2.4l-9.21,7.66Z"/><path class="cls-1" d="M1191,311.13a1.5,1.5,0,0,1-2-2.24h0l8.88-8h0a1.5,1.5,0,1,1,2,2.24l-8.92,8Z"/><path class="cls-1" d="M1208.73,294.92a1.5,1.5,0,0,1-2.09-2.15h0l8.57-8.29h0l.16-.16a1.5,1.5,0,0,1,1.92,2.31l-8.61,8.33Z"/><path class="cls-1" d="M1225.78,278.1l-.15.16a1.51,1.51,0,0,1-2.12-.11,1.49,1.49,0,0,1,.11-2.12h0l8.24-8.62h0a1.5,1.5,0,0,1,2.17,2.08l-8.29,8.65Z"/><path class="cls-1" d="M1242.19,260.6a1.51,1.51,0,1,1-2.25-2h0l7.9-8.93h0a1.51,1.51,0,0,1,2.25,2l-7.94,9Z"/><path class="cls-1" d="M1257.89,242.5a1.5,1.5,0,1,1-2.33-1.9h0l7.54-9.24h0a1.51,1.51,0,0,1,2.33,1.91l-7.58,9.28Z"/><path class="cls-1" d="M1272.85,223.8a1.53,1.53,0,0,1-2.44-1.83h0l7.16-9.53h0a1.52,1.52,0,0,1,2.43,1.82l-7.17,9.6Z"/><path class="cls-1" d="M1287,204.46a1.48,1.48,0,0,1-2.43-1.69h0l6.79-9.8h0a1.41,1.41,0,0,1,2.32,1.59l-6.71,9.93Z"/><path class="cls-1" d="M1300.17,184.44l-.08.13a1.33,1.33,0,1,1-2.17-1.54h0l6.34-10.09h0a1.25,1.25,0,0,1,2.13,1.32l-6.25,10.22Z"/><path class="cls-1" d="M1312.37,163.85a1.17,1.17,0,1,1-2-1.15h0l5.87-10.38h0a1.1,1.1,0,0,1,1.92,1.07l-5.76,10.5Z"/><path class="cls-1" d="M1323.68,142.72l0,0a1,1,0,0,1-1.35.42l0,0a1,1,0,0,1-.41-1.35h0l5.36-10.66h0a.94.94,0,0,1,1.69.84l-5.23,10.77Z"/><path class="cls-1" d="M1333.87,121.05l-.06.14a.87.87,0,0,1-1.53-.83h0l4.78-10.92h0a.8.8,0,0,1,1.46.63l-4.66,11Z"/><path class="cls-1" d="M1342.86,98.86h0a.71.71,0,0,1-.92.41.73.73,0,0,1-.43-.92h0l4.16-11.18h0a.64.64,0,0,0,0-.07.65.65,0,0,1,.85-.33.64.64,0,0,1,.33.84l-4,11.27Z"/><path class="cls-1" d="M1350.6,76.2a.57.57,0,0,1-.71.37h0a.55.55,0,0,1-.35-.69h0L1353,64.46h0a.48.48,0,0,1,.61-.32h0a.48.48,0,0,1,.32.6l-3.34,11.49Z"/><path class="cls-1" d="M1356.9,53.12a.41.41,0,0,1-.49.31h0a.4.4,0,0,1-.29-.49h0l2.74-11.62h0a.32.32,0,0,1,.38-.22h0a.3.3,0,0,1,.22.36l-2.57,11.69Z"/><path class="cls-1" d="M1361.63,29.69a.23.23,0,1,1-.45-.07h0l1.89-11.79h0a.14.14,0,0,1,.16-.12.15.15,0,0,1,.11.16l-1.72,11.83Z"/><path class="cls-1" d="M1364.52,6h0l.55-6-.46,6Z"/></svg>