<svg xmlns="http://www.w3.org/2000/svg" xmlns:xlink="http://www.w3.org/1999/xlink" width="210" height="167.986" viewBox="0 0 210 167.986">
  <defs>
    <linearGradient id="linear-gradient" x1="0.5" x2="0.5" y2="1" gradientUnits="objectBoundingBox">
      <stop offset="0" stop-color="#f27821"/>
      <stop offset="1" stop-color="#ff512f"/>
    </linearGradient>
  </defs>
  <g id="Group_13" data-name="Group 13" transform="translate(-626.487 -192.607)">
    <path id="Path_14" data-name="Path 14" d="M699.382,53.9c-.037-.006-.029,0,.024.013Zm0,0c-.037-.006-.029,0,.024.013Zm38.029-21.724c-2.273-1.562-4.405,1.991-4.405,1.991s-8.385,14.781-9.521,14.353c-.823-.308-.754-.691-.651-.878a1.268,1.268,0,0,0,.128-.33l3.773-17.187a1.192,1.192,0,0,1,.045-.15c.29-.81,2.9-8.361-.594-9.169-3.7-.851-4.407,2.986-4.407,2.986s-4.832,17.907-5.968,20.322c-.759,1.611-1.263,1.327-1.516.958a1.164,1.164,0,0,1-.194-.643l-.423-23.867c0-.029,0-.059,0-.088-.044-.484-.5-4.321-3.833-3.789-3.554.569-3.41,3.554-3.41,3.554s.391,19.43.174,23.313a1.212,1.212,0,0,1-.328.77c-1.2,1.278-1.695-.066-1.695-.066l-7.248-20.037s-.851-2.843-4.121-1.707c-3.089,1.076-1.989,4.309-1.859,4.66.011.024.018.051.026.075l5.33,18.244a18.059,18.059,0,0,1,.273,9.266,11.384,11.384,0,0,1-.43,1.426,1.237,1.237,0,0,1-2.226.16c-4.159-7.176-13.193-8.679-15.106-8.918a1.217,1.217,0,0,0-.7.119c-4.847,2.392-.088,5.382-.088,5.382,7.391,4.548,8.529,8.385,11.94,15.207,2.75,5.5,8.275,8.324,10.311,9.208a1.231,1.231,0,0,1,.742,1.175c-.211,5.882-1.44,40.128-1.527,50.27a1.233,1.233,0,0,0,1.016,1.225c8.036,1.4,17.816-.746,20.888-1.509a1.239,1.239,0,0,0,.937-1.245c-.207-5.763-1.252-35.174-1.652-47.714a1.227,1.227,0,0,1,.435-.975c7.919-6.651,7.86-22.628,7.8-25.159a1.234,1.234,0,0,1,.167-.647l8.3-14.392a1.16,1.16,0,0,0,.088-.185C738.133,37.511,739.483,33.605,737.411,32.179ZM709.5,74.807c2.169-16.265-10.593-21.108-10.96-21.245a24,24,0,0,1,3.982,1.259c4.8,1.466,13.588,4.533,15.559,8.1-2.31-.99-6.981-3.243-11.081-5.252C712.148,62.615,710.443,70.033,709.5,74.807Zm2.755-23.929a.2.2,0,0,1,.084-.379c7.5,7.149,15.6,6.716,16.067,6.685C722.026,58.082,713.242,56.758,712.258,50.879Zm-12.852,3.039-.024-.013C699.344,53.9,699.353,53.9,699.406,53.917Z" transform="translate(21.786 175.969)" fill="#fff"/>
    <path id="Path_15" data-name="Path 15" d="M647.234,96.614c-.026,0-.019,0,.018,0Zm0,0c-.026,0-.019,0,.018,0Zm21.1-20.905c-1.763-.624-2.536,2.077-2.536,2.077s-2.9,11.154-3.717,11.073c-.593-.057-.616-.32-.581-.461a.882.882,0,0,0,.026-.239l-.545-11.921a.749.749,0,0,1,0-.106c.049-.581.434-5.986-2-5.9a2.443,2.443,0,0,0-2.363,2.729s-.023,12.577-.342,14.36c-.215,1.188-.595,1.091-.826.893a.8.8,0,0,1-.239-.386l-4.466-15.56c-.005-.018-.011-.038-.018-.056-.115-.309-1.089-2.743-3.176-1.81a2.433,2.433,0,0,0-1.61,2.926s3.667,12.659,4.206,15.24a.82.82,0,0,1-.08.562c-.564,1.049-1.122.254-1.122.254l-8.264-11.853a1.99,1.99,0,0,0-3-.395c-1.834,1.247-.547,3.171-.4,3.379.011.014.021.03.03.044l6.693,11.014a12.241,12.241,0,0,1,1.8,6.021,7.672,7.672,0,0,1-.03,1.009.839.839,0,0,1-1.43.5c-3.984-3.971-10.165-3.369-11.46-3.19a.831.831,0,0,0-.438.2c-2.755,2.417.887,3.541.887,3.541,5.64,1.682,7.058,4,10.49,7.866a14.4,14.4,0,0,0,8.371,4.222.834.834,0,0,1,.691.64c.894,3.89,6.1,26.538,7.823,33.2a.837.837,0,0,0,.881.624c5.509-.5,11.54-3.616,13.418-4.655a.841.841,0,0,0,.4-.98c-1.147-3.739-6.994-22.82-9.457-30.964a.831.831,0,0,1,.114-.715c4.02-5.747,1.177-16.2.693-17.85a.829.829,0,0,1,0-.453L669.667,79.7a.794.794,0,0,0,.025-.136C669.74,79.075,669.939,76.279,668.331,75.709Zm-10.8,32.821c-1.434-11.036-10.644-11.968-10.908-11.993a16.237,16.237,0,0,1,2.829.126c3.4.117,9.7.584,11.614,2.577-1.687-.243-5.143-.9-8.181-1.5C657.125,100.079,657.31,105.238,657.533,108.53Zm-2.4-16.159a.136.136,0,0,1-.012-.262,15.335,15.335,0,0,0,11.7,1.558C662.8,95.377,656.814,96.05,655.138,92.372Zm-7.885,4.246-.018,0C647.208,96.616,647.215,96.618,647.252,96.618Z" transform="translate(34.978 160.242)" fill="#fff"/>
    <path id="Path_16" data-name="Path 16" d="M768.07,93.672c-.023-.011-.018-.007.013.013Zm0,0c-.023-.011-.018-.007.013.013Zm28.723-7.556c-1.215-1.423-3.235.531-3.235.531s-8.087,8.21-8.756,7.731c-.485-.346-.374-.586-.273-.689a.882.882,0,0,0,.141-.194l5.489-10.6a.8.8,0,0,1,.055-.09c.332-.48,3.368-4.968,1.22-6.11a2.444,2.444,0,0,0-3.411,1.182s-6.308,10.882-7.476,12.265c-.78.922-1.06.648-1.161.361a.793.793,0,0,1-.014-.455l3.912-15.708c0-.019.009-.04.013-.059.056-.325.428-2.919-1.846-3.154a2.433,2.433,0,0,0-2.858,1.729s-3.154,12.8-3.978,15.3a.821.821,0,0,1-.35.447c-1.013.626-1.1-.34-1.1-.34l-1.231-14.4a1.991,1.991,0,0,0-2.4-1.842c-2.212.162-2.059,2.473-2.036,2.726,0,.018,0,.036,0,.054l.289,12.885a12.242,12.242,0,0,1-1.447,6.117,7.736,7.736,0,0,1-.531.859.839.839,0,0,1-1.487-.286c-1.465-5.43-7.119-8-8.33-8.493a.829.829,0,0,0-.479-.045c-3.6.716-1,3.51-1,3.51,4.043,4.276,4.114,6.99,5.151,12.056a14.4,14.4,0,0,0,5.138,7.842.835.835,0,0,1,.28.9c-1.171,3.816-7.986,26.033-9.823,32.661a.837.837,0,0,0,.451.981c5.018,2.325,11.8,2.638,13.948,2.678a.842.842,0,0,0,.833-.652c.876-3.811,5.353-23.259,7.291-31.544a.833.833,0,0,1,.457-.562c6.355-2.967,9.12-13.443,9.523-15.112a.84.84,0,0,1,.223-.394l7.965-7.971a.769.769,0,0,0,.09-.105C796.33,89.735,797.9,87.414,796.793,86.117ZM771.03,109.142c4.276-10.273-3.234-15.686-3.45-15.84a16.252,16.252,0,0,1,2.388,1.524c2.89,1.8,8.1,5.354,8.769,8.039-1.339-1.055-4-3.35-6.336-5.386C774.9,101.619,772.484,106.179,771.03,109.142Zm6-15.191a.137.137,0,0,1,.122-.234,15.336,15.336,0,0,0,9.351,7.2C782.169,100.384,776.648,97.974,777.035,93.951Zm-8.952-.266-.013-.013C768.046,93.661,768.051,93.665,768.083,93.685Z" transform="translate(-0.907 159.972)" fill="#fff"/>
    <path id="Path_17" data-name="Path 17" d="M783.43,112.243c-.052-.015-.061-.02-.024-.013Z" transform="translate(-9.649 147.896)" fill="url(#linear-gradient)"/>
    <path id="Path_18" data-name="Path 18" d="M783.43,112.243c-.052-.015-.061-.02-.024-.013Z" transform="translate(-9.649 147.896)" fill="url(#linear-gradient)"/>
    <path id="Path_19" data-name="Path 19" d="M820.487,116.593a100,100,0,1,1-200,0" transform="translate(11 139)" fill="none" stroke="#fff" stroke-linecap="round" stroke-miterlimit="10" stroke-width="10"/>
  </g>
</svg>
